<?xml version="1.0" standalone="no"?><svg xmlns="http://www.w3.org/2000/svg" viewBox="0 0 1440 320"><path fill="#ffffff" fill-opacity="1" d="M0,160L30,181.3C60,203,120,245,180,245.3C240,245,300,203,360,192C420,181,480,203,540,186.7C600,171,660,117,720,133.3C780,149,840,235,900,250.7C960,267,1020,213,1080,181.3C1140,149,1200,139,1260,112C1320,85,1380,43,1410,21.3L1440,0L1440,320L1410,320C1380,320,1320,320,1260,320C1200,320,1140,320,1080,320C1020,320,960,320,900,320C840,320,780,320,720,320C660,320,600,320,540,320C480,320,420,320,360,320C300,320,240,320,180,320C120,320,60,320,30,320L0,320Z"></path></svg>